<mxfile host="Electron" modified="2024-04-05T10:39:07.637Z" agent="Mozilla/5.0 (Windows NT 10.0; Win64; x64) AppleWebKit/537.36 (KHTML, like Gecko) draw.io/24.1.0 Chrome/120.0.6099.109 Electron/28.1.0 Safari/537.36" etag="K8oDG28ioUO9z7kcFjCU" version="24.1.0" type="device">
  <diagram name="Pagina-1" id="JQF5zytuKUZfdedOHtoW">
    <mxGraphModel dx="864" dy="516" grid="1" gridSize="10" guides="1" tooltips="1" connect="1" arrows="1" fold="1" page="1" pageScale="1" pageWidth="827" pageHeight="1169" math="0" shadow="0">
      <root>
        <mxCell id="0" />
        <mxCell id="1" parent="0" />
        <mxCell id="ThkdADuhndzA0B33cF07-19" style="edgeStyle=orthogonalEdgeStyle;rounded=0;orthogonalLoop=1;jettySize=auto;html=1;entryX=0;entryY=0.5;entryDx=0;entryDy=0;" edge="1" parent="1" source="ThkdADuhndzA0B33cF07-1" target="ThkdADuhndzA0B33cF07-4">
          <mxGeometry relative="1" as="geometry" />
        </mxCell>
        <mxCell id="ThkdADuhndzA0B33cF07-20" style="edgeStyle=orthogonalEdgeStyle;rounded=0;orthogonalLoop=1;jettySize=auto;html=1;entryX=0;entryY=0.5;entryDx=0;entryDy=0;" edge="1" parent="1" source="ThkdADuhndzA0B33cF07-1" target="ThkdADuhndzA0B33cF07-6">
          <mxGeometry relative="1" as="geometry" />
        </mxCell>
        <mxCell id="ThkdADuhndzA0B33cF07-21" style="edgeStyle=orthogonalEdgeStyle;rounded=0;orthogonalLoop=1;jettySize=auto;html=1;entryX=0;entryY=0.5;entryDx=0;entryDy=0;" edge="1" parent="1" source="ThkdADuhndzA0B33cF07-1" target="ThkdADuhndzA0B33cF07-8">
          <mxGeometry relative="1" as="geometry" />
        </mxCell>
        <mxCell id="ThkdADuhndzA0B33cF07-22" style="edgeStyle=orthogonalEdgeStyle;rounded=0;orthogonalLoop=1;jettySize=auto;html=1;entryX=0;entryY=0.5;entryDx=0;entryDy=0;" edge="1" parent="1" source="ThkdADuhndzA0B33cF07-1" target="ThkdADuhndzA0B33cF07-10">
          <mxGeometry relative="1" as="geometry" />
        </mxCell>
        <mxCell id="ThkdADuhndzA0B33cF07-23" style="edgeStyle=orthogonalEdgeStyle;rounded=0;orthogonalLoop=1;jettySize=auto;html=1;entryX=0;entryY=0.5;entryDx=0;entryDy=0;" edge="1" parent="1" source="ThkdADuhndzA0B33cF07-1" target="ThkdADuhndzA0B33cF07-12">
          <mxGeometry relative="1" as="geometry" />
        </mxCell>
        <mxCell id="ThkdADuhndzA0B33cF07-24" style="edgeStyle=orthogonalEdgeStyle;rounded=0;orthogonalLoop=1;jettySize=auto;html=1;entryX=0;entryY=0.5;entryDx=0;entryDy=0;" edge="1" parent="1" source="ThkdADuhndzA0B33cF07-1" target="ThkdADuhndzA0B33cF07-14">
          <mxGeometry relative="1" as="geometry" />
        </mxCell>
        <mxCell id="ThkdADuhndzA0B33cF07-25" style="edgeStyle=orthogonalEdgeStyle;rounded=0;orthogonalLoop=1;jettySize=auto;html=1;entryX=0;entryY=0.5;entryDx=0;entryDy=0;" edge="1" parent="1" source="ThkdADuhndzA0B33cF07-1" target="ThkdADuhndzA0B33cF07-16">
          <mxGeometry relative="1" as="geometry" />
        </mxCell>
        <mxCell id="ThkdADuhndzA0B33cF07-27" style="edgeStyle=orthogonalEdgeStyle;rounded=0;orthogonalLoop=1;jettySize=auto;html=1;entryX=0;entryY=0.5;entryDx=0;entryDy=0;endArrow=doubleBlock;endFill=1;" edge="1" parent="1" source="ThkdADuhndzA0B33cF07-1" target="ThkdADuhndzA0B33cF07-26">
          <mxGeometry relative="1" as="geometry" />
        </mxCell>
        <mxCell id="ThkdADuhndzA0B33cF07-1" value="CORPO CELESTE" style="rounded=0;whiteSpace=wrap;html=1;fillColor=#dae8fc;strokeColor=#6c8ebf;" vertex="1" parent="1">
          <mxGeometry x="120" y="180" width="160" height="60" as="geometry" />
        </mxCell>
        <mxCell id="ThkdADuhndzA0B33cF07-28" style="edgeStyle=orthogonalEdgeStyle;rounded=0;orthogonalLoop=1;jettySize=auto;html=1;entryX=1;entryY=0.5;entryDx=0;entryDy=0;endArrow=doubleBlock;endFill=1;" edge="1" parent="1" source="ThkdADuhndzA0B33cF07-2" target="ThkdADuhndzA0B33cF07-26">
          <mxGeometry relative="1" as="geometry" />
        </mxCell>
        <mxCell id="ThkdADuhndzA0B33cF07-39" style="edgeStyle=orthogonalEdgeStyle;rounded=0;orthogonalLoop=1;jettySize=auto;html=1;entryX=0;entryY=0.5;entryDx=0;entryDy=0;" edge="1" parent="1" source="ThkdADuhndzA0B33cF07-2" target="ThkdADuhndzA0B33cF07-32">
          <mxGeometry relative="1" as="geometry" />
        </mxCell>
        <mxCell id="ThkdADuhndzA0B33cF07-40" style="edgeStyle=orthogonalEdgeStyle;rounded=0;orthogonalLoop=1;jettySize=auto;html=1;entryX=0;entryY=0.5;entryDx=0;entryDy=0;" edge="1" parent="1" source="ThkdADuhndzA0B33cF07-2" target="ThkdADuhndzA0B33cF07-36">
          <mxGeometry relative="1" as="geometry" />
        </mxCell>
        <mxCell id="ThkdADuhndzA0B33cF07-41" style="edgeStyle=orthogonalEdgeStyle;rounded=0;orthogonalLoop=1;jettySize=auto;html=1;entryX=0;entryY=0.5;entryDx=0;entryDy=0;" edge="1" parent="1" source="ThkdADuhndzA0B33cF07-2" target="ThkdADuhndzA0B33cF07-37">
          <mxGeometry relative="1" as="geometry" />
        </mxCell>
        <mxCell id="ThkdADuhndzA0B33cF07-2" value="SISTEMA" style="rounded=0;whiteSpace=wrap;html=1;fillColor=#f8cecc;strokeColor=#b85450;" vertex="1" parent="1">
          <mxGeometry x="570" y="180" width="160" height="60" as="geometry" />
        </mxCell>
        <mxCell id="ThkdADuhndzA0B33cF07-4" value="" style="ellipse;whiteSpace=wrap;html=1;aspect=fixed;" vertex="1" parent="1">
          <mxGeometry x="240" y="275" width="20" height="20" as="geometry" />
        </mxCell>
        <mxCell id="ThkdADuhndzA0B33cF07-5" value="Nome" style="text;html=1;align=center;verticalAlign=middle;resizable=0;points=[];autosize=1;strokeColor=none;fillColor=none;" vertex="1" parent="1">
          <mxGeometry x="254" y="270" width="60" height="30" as="geometry" />
        </mxCell>
        <mxCell id="ThkdADuhndzA0B33cF07-6" value="" style="ellipse;whiteSpace=wrap;html=1;aspect=fixed;fillColor=#000000;" vertex="1" parent="1">
          <mxGeometry x="240" y="305" width="20" height="20" as="geometry" />
        </mxCell>
        <mxCell id="ThkdADuhndzA0B33cF07-7" value="Codice" style="text;html=1;align=center;verticalAlign=middle;resizable=0;points=[];autosize=1;strokeColor=none;fillColor=none;" vertex="1" parent="1">
          <mxGeometry x="254" y="300" width="60" height="30" as="geometry" />
        </mxCell>
        <mxCell id="ThkdADuhndzA0B33cF07-8" value="" style="ellipse;whiteSpace=wrap;html=1;aspect=fixed;" vertex="1" parent="1">
          <mxGeometry x="240" y="330" width="20" height="20" as="geometry" />
        </mxCell>
        <mxCell id="ThkdADuhndzA0B33cF07-9" value="DataScoperta" style="text;html=1;align=center;verticalAlign=middle;resizable=0;points=[];autosize=1;strokeColor=none;fillColor=none;" vertex="1" parent="1">
          <mxGeometry x="250" y="325" width="100" height="30" as="geometry" />
        </mxCell>
        <mxCell id="ThkdADuhndzA0B33cF07-10" value="" style="ellipse;whiteSpace=wrap;html=1;aspect=fixed;" vertex="1" parent="1">
          <mxGeometry x="240" y="360" width="20" height="20" as="geometry" />
        </mxCell>
        <mxCell id="ThkdADuhndzA0B33cF07-11" value="Scopritore" style="text;html=1;align=center;verticalAlign=middle;resizable=0;points=[];autosize=1;strokeColor=none;fillColor=none;" vertex="1" parent="1">
          <mxGeometry x="250" y="355" width="80" height="30" as="geometry" />
        </mxCell>
        <mxCell id="ThkdADuhndzA0B33cF07-12" value="" style="ellipse;whiteSpace=wrap;html=1;aspect=fixed;" vertex="1" parent="1">
          <mxGeometry x="240" y="390" width="20" height="20" as="geometry" />
        </mxCell>
        <mxCell id="ThkdADuhndzA0B33cF07-13" value="Tipologia" style="text;html=1;align=center;verticalAlign=middle;resizable=0;points=[];autosize=1;strokeColor=none;fillColor=none;" vertex="1" parent="1">
          <mxGeometry x="250" y="385" width="70" height="30" as="geometry" />
        </mxCell>
        <mxCell id="ThkdADuhndzA0B33cF07-14" value="" style="ellipse;whiteSpace=wrap;html=1;aspect=fixed;" vertex="1" parent="1">
          <mxGeometry x="240" y="415" width="20" height="20" as="geometry" />
        </mxCell>
        <mxCell id="ThkdADuhndzA0B33cF07-15" value="Distanza" style="text;html=1;align=center;verticalAlign=middle;resizable=0;points=[];autosize=1;strokeColor=none;fillColor=none;" vertex="1" parent="1">
          <mxGeometry x="249" y="410" width="70" height="30" as="geometry" />
        </mxCell>
        <mxCell id="ThkdADuhndzA0B33cF07-16" value="" style="ellipse;whiteSpace=wrap;html=1;aspect=fixed;" vertex="1" parent="1">
          <mxGeometry x="240" y="445" width="20" height="20" as="geometry" />
        </mxCell>
        <mxCell id="ThkdADuhndzA0B33cF07-17" value="Coordinate" style="text;html=1;align=center;verticalAlign=middle;resizable=0;points=[];autosize=1;strokeColor=none;fillColor=none;" vertex="1" parent="1">
          <mxGeometry x="254" y="440" width="80" height="30" as="geometry" />
        </mxCell>
        <mxCell id="ThkdADuhndzA0B33cF07-26" value="appartiene" style="rhombus;whiteSpace=wrap;html=1;fillColor=#fa6800;strokeColor=#C73500;fontColor=#000000;" vertex="1" parent="1">
          <mxGeometry x="390" y="170" width="80" height="80" as="geometry" />
        </mxCell>
        <mxCell id="ThkdADuhndzA0B33cF07-29" value="" style="endArrow=none;html=1;rounded=0;" edge="1" parent="1">
          <mxGeometry width="50" height="50" relative="1" as="geometry">
            <mxPoint x="540" y="250" as="sourcePoint" />
            <mxPoint x="540" y="185" as="targetPoint" />
            <Array as="points">
              <mxPoint x="540" y="175" />
            </Array>
          </mxGeometry>
        </mxCell>
        <mxCell id="ThkdADuhndzA0B33cF07-30" value="Nome" style="text;html=1;align=center;verticalAlign=middle;resizable=0;points=[];autosize=1;strokeColor=none;fillColor=none;" vertex="1" parent="1">
          <mxGeometry x="695" y="270" width="60" height="30" as="geometry" />
        </mxCell>
        <mxCell id="ThkdADuhndzA0B33cF07-32" value="" style="ellipse;whiteSpace=wrap;html=1;aspect=fixed;" vertex="1" parent="1">
          <mxGeometry x="680" y="275" width="20" height="20" as="geometry" />
        </mxCell>
        <mxCell id="ThkdADuhndzA0B33cF07-35" value="Tipo" style="text;html=1;align=center;verticalAlign=middle;resizable=0;points=[];autosize=1;strokeColor=none;fillColor=none;" vertex="1" parent="1">
          <mxGeometry x="690" y="330" width="50" height="30" as="geometry" />
        </mxCell>
        <mxCell id="ThkdADuhndzA0B33cF07-36" value="" style="ellipse;whiteSpace=wrap;html=1;aspect=fixed;fillColor=#000000;" vertex="1" parent="1">
          <mxGeometry x="680" y="305" width="20" height="20" as="geometry" />
        </mxCell>
        <mxCell id="ThkdADuhndzA0B33cF07-37" value="" style="ellipse;whiteSpace=wrap;html=1;aspect=fixed;" vertex="1" parent="1">
          <mxGeometry x="680" y="335" width="20" height="20" as="geometry" />
        </mxCell>
        <mxCell id="ThkdADuhndzA0B33cF07-38" value="Codice" style="text;html=1;align=center;verticalAlign=middle;resizable=0;points=[];autosize=1;strokeColor=none;fillColor=none;" vertex="1" parent="1">
          <mxGeometry x="690" y="300" width="60" height="30" as="geometry" />
        </mxCell>
      </root>
    </mxGraphModel>
  </diagram>
</mxfile>
